<svg id="Layer_1" data-name="Layer 1" xmlns="http://www.w3.org/2000/svg" viewBox="0 0 512 512"><title>youtube-flat</title><path d="M0,256C0,114.62,114.62,0,256,0S512,114.63,512,256,397.37,512,256,512,0,397.38,0,256Z" fill="#ff352e"/><path d="M173.66,324.43A24.11,24.11,0,0,1,157.75,309c-6.89-18.93-8.93-98.22,4.33-113.82a25.71,25.71,0,0,1,17.33-9.23c35.75-3.84,146.25-3.29,159,1.29a24.91,24.91,0,0,1,15.63,15c7.54,19.58,7.8,90.85-1,109.74a24.34,24.34,0,0,1-11.22,11.32C328.49,330.27,191.22,330.19,173.66,324.43Zm56.8-37.17c21.49-11.14,42.81-22.19,64.39-33.39l-64.39-33.58Z" fill="#fff" fill-rule="evenodd"/></svg>